<?xml version="1.0" encoding="utf-8"?>
<!-- Generator: Adobe Illustrator 19.0.0, SVG Export Plug-In . SVG Version: 6.00 Build 0)  -->
<svg version="1.1" id="Layer_1" xmlns="http://www.w3.org/2000/svg" xmlns:xlink="http://www.w3.org/1999/xlink" x="0px" y="0px"
	 viewBox="0 0 438 204" enable-background="new 0 0 438 204" xml:space="preserve">
<g id="XMLID_1_">
	<g id="XMLID_2_">
		<path id="XMLID_29_" fill="#D85050" d="M88,133.8H71.5V47.1H55.2V36.7c9.2-3.9,19-11,23.1-16.3H88V133.8z"/>
		<path id="XMLID_31_" fill="#D85050" d="M160.8,97.7c0,12.9-1.7,20.4-5.9,26.9c-4.8,7-12.8,10.9-22.4,10.9
			c-9.9,0-17.8-3.9-22.6-10.9c-4.2-6.5-5.9-14.1-5.9-26.9V56.4c0-12.8,1.7-20.4,5.9-26.9c4.8-7,12.8-10.9,22.6-10.9
			c9.7,0,17.7,3.9,22.4,10.9c4.2,6.5,5.9,13.9,5.9,26.9V97.7z M120.3,101.3c0,7.8,0.3,10,2,13.3c1.9,3.4,5.4,5.3,10,5.3
			c4.4,0,8-1.9,9.9-5.3c1.7-3.2,2-5.3,2-13.3V52.9c0-8-0.3-10-2-13.3c-1.9-3.4-5.4-5.3-9.9-5.3c-4.6,0-8.2,1.9-10,5.3
			c-1.7,3.2-2,5.3-2,13.3V101.3z"/>
		<path id="XMLID_34_" fill="#D85050" d="M194.3,133.8L170,20.4h18.2l17,86.2l15-86.2H238L216,133.8H194.3z"/>
		<path id="XMLID_36_" fill="#D85050" d="M309.9,97.7c0,12.7-1.9,20.4-6.5,26.9c-5.1,7.1-13.6,10.9-24.5,10.9s-19.4-3.7-24.5-10.9
			c-4.6-6.5-6.5-14.1-6.5-26.9V56.4c0-12.8,1.9-20.4,6.5-26.9c5.1-7.1,13.6-10.9,24.5-10.9s19.4,3.7,24.5,10.9
			c4.6,6.5,6.5,14.1,6.5,26.9V97.7z M265.5,97.4c0,9,0.5,12.1,2.2,15.5c2,3.7,6.3,6.1,11.2,6.1c4.9,0,9.2-2.4,11.2-6.1
			c1.9-3.6,2.2-6.3,2.2-15.5V56.8c0-9.2-0.3-11.9-2.2-15.5c-2-3.7-6.3-6.1-11.2-6.1c-4.9,0-9.2,2.4-11.2,6.1
			c-1.7,3.4-2.2,6.5-2.2,15.5V97.4z"/>
		<path id="XMLID_39_" fill="#D85050" d="M343.5,117.6h34.8v16.2H326V20.4h17.5V117.6z"/>
		<path id="XMLID_41_" fill="#D85050" d="M415.9,133.8h-17.5V36.5h-21.9V20.4H438v16.1h-22.1V133.8z"/>
	</g>
</g>
<polygon id="XMLID_26_" fill="#D85050" points="11.6,0 21.6,102 7.3,93 31.6,81.4 46.8,74.2 45.9,90.2 39.3,204 25.9,90.7 
	40.2,99.5 15.9,111 0,118.6 1.6,102 "/>
</svg>
