<?xml version="1.0" encoding="utf-8"?>
<!-- Generator: Adobe Illustrator 19.0.0, SVG Export Plug-In . SVG Version: 6.00 Build 0)  -->
<svg version="1.1" id="Layer_1" xmlns="http://www.w3.org/2000/svg" xmlns:xlink="http://www.w3.org/1999/xlink" x="0px" y="0px"
	 viewBox="0 0 600 600" enable-background="new 0 0 600 600" xml:space="preserve">
<g id="XMLID_1_">
	<g id="XMLID_2_">
		<path id="XMLID_29_" fill="#C61E1E" d="M141.4,326.8h-16.5v-86.7h-16.3v-10.4c9.2-3.9,19-11,23.1-16.3h9.7V326.8z"/>
		<path id="XMLID_31_" fill="#C61E1E" d="M214.1,290.7c0,12.9-1.7,20.4-5.9,26.9c-4.8,7-12.8,10.9-22.4,10.9
			c-9.9,0-17.8-3.9-22.6-10.9c-4.2-6.5-5.9-14.1-5.9-26.9v-41.3c0-12.8,1.7-20.4,5.9-26.9c4.8-7,12.8-10.9,22.6-10.9
			c9.7,0,17.7,3.9,22.4,10.9c4.2,6.5,5.9,13.9,5.9,26.9V290.7z M173.7,294.3c0,7.8,0.3,10,2,13.3c1.9,3.4,5.4,5.3,10,5.3
			c4.4,0,8-1.9,9.9-5.3c1.7-3.2,2-5.3,2-13.3v-48.4c0-8-0.3-10-2-13.3c-1.9-3.4-5.4-5.3-9.9-5.3c-4.6,0-8.2,1.9-10,5.3
			c-1.7,3.2-2,5.3-2,13.3V294.3z"/>
		<path id="XMLID_34_" fill="#C61E1E" d="M247.6,326.8l-24.3-113.4h18.2l17,86.2l15-86.2h17.8l-21.9,113.4H247.6z"/>
		<path id="XMLID_36_" fill="#C61E1E" d="M363.2,290.7c0,12.7-1.9,20.4-6.5,26.9c-5.1,7.1-13.6,10.9-24.5,10.9s-19.4-3.7-24.5-10.9
			c-4.6-6.5-6.5-14.1-6.5-26.9v-41.3c0-12.8,1.9-20.4,6.5-26.9c5.1-7.1,13.6-10.9,24.5-10.9s19.4,3.7,24.5,10.9
			c4.6,6.5,6.5,14.1,6.5,26.9V290.7z M318.9,290.4c0,9,0.5,12.1,2.2,15.5c2,3.7,6.3,6.1,11.2,6.1c4.9,0,9.2-2.4,11.2-6.1
			c1.9-3.6,2.2-6.3,2.2-15.5v-40.6c0-9.2-0.3-11.9-2.2-15.5c-2-3.7-6.3-6.1-11.2-6.1c-4.9,0-9.2,2.4-11.2,6.1
			c-1.7,3.4-2.2,6.5-2.2,15.5V290.4z"/>
		<path id="XMLID_39_" fill="#C61E1E" d="M396.9,310.6h34.8v16.2h-52.4V213.4h17.5V310.6z"/>
		<path id="XMLID_41_" fill="#C61E1E" d="M469.3,326.8h-17.5v-97.2h-21.9v-16.1h61.5v16.1h-22.1V326.8z"/>
	</g>
	<g id="XMLID_6_">
		<path id="XMLID_4_" fill="#C61E1E" d="M147.7,377.7c-0.9,3.3-1.6,5-3.2,6.9c-2.1,2.5-5,3.8-8.7,3.8c-3.7,0-6.7-1.4-8.9-3.9
			c-2.8-3.3-4.3-7.9-4.3-13.2c0-10,5.3-16.5,13.4-16.5c6.1,0,9.9,3.4,11.6,10.4l-3.8,0.7c-1.6-5.4-3.9-7.7-7.9-7.7
			c-5.6,0-9,5-9,13.5c0,8,3.4,13.2,8.8,13.2c2.3,0,4.7-1.2,6-3c1-1.4,1.5-2.5,2.2-5.1L147.7,377.7z"/>
		<path id="XMLID_7_" fill="#C61E1E" d="M180.2,371.5c0,4.8-1.6,9.5-4.3,12.7c-2.3,2.8-5.2,4.1-9,4.1c-3.8,0-6.9-1.4-9.2-4.2
			c-2.6-3.2-4-7.5-4-12.5c0-10,5.4-16.9,13.3-16.9C175,354.7,180.2,361.4,180.2,371.5z M158,371.6c0,8,3.6,13.4,9.1,13.4
			c5.4,0,9-5.4,9-13.6c0-8.4-3.4-13.4-9.1-13.4C161.5,358,158,363.4,158,371.6z"/>
		<path id="XMLID_10_" fill="#C61E1E" d="M189.2,387.7v-32.3H209v3.5h-15.7v10.2h13.1v3.2h-13.1v15.3H189.2z"/>
		<path id="XMLID_12_" fill="#C61E1E" d="M216.7,387.7v-32.3h19.8v3.5h-15.7v10.2h13.1v3.2h-13.1v15.3H216.7z"/>
		<path id="XMLID_14_" fill="#C61E1E" d="M265.1,387.7h-20.9v-32.3h20.4v3.5h-16.4v10.3h13v3.3h-13v11.6h16.9V387.7z"/>
		<path id="XMLID_16_" fill="#C61E1E" d="M294.6,387.7h-20.9v-32.3h20.4v3.5h-16.4v10.3h13v3.3h-13v11.6h16.9V387.7z"/>
		<path id="XMLID_18_" fill="#C61E1E" d="M337.3,387.7v-15.4h-15v15.4h-4v-32.3h4v13.4h15v-13.4h4v32.3H337.3z"/>
		<path id="XMLID_20_" fill="#C61E1E" d="M376.8,371.5c0,4.8-1.6,9.5-4.3,12.7c-2.3,2.8-5.2,4.1-9,4.1c-3.8,0-6.9-1.4-9.2-4.2
			c-2.6-3.2-4-7.5-4-12.5c0-10,5.4-16.9,13.3-16.9C371.5,354.7,376.8,361.4,376.8,371.5z M354.5,371.6c0,8,3.6,13.4,9.1,13.4
			c5.4,0,9-5.4,9-13.6c0-8.4-3.4-13.4-9.1-13.4C358,358,354.5,363.4,354.5,371.6z"/>
		<path id="XMLID_23_" fill="#C61E1E" d="M407.5,355.4v21.1c0,3.7-0.6,6-2.2,8c-1.9,2.5-5,3.8-9.1,3.8c-4.3,0-7.3-1.3-9.1-3.8
			c-1.4-2-1.9-4.3-1.9-8v-21.1h4v21.1c0,3,0.4,4.7,1.3,5.9c1.1,1.5,3.5,2.4,6,2.4c2.5,0,4.7-0.9,6-2.4c1.2-1.4,1.6-3.1,1.6-5.9
			v-21.1H407.5z"/>
		<path id="XMLID_25_" fill="#C61E1E" d="M418.2,378.3c1.5,4.5,4.6,6.6,9.5,6.6c4.8,0,7.8-2.2,7.8-5.9c0-2.5-1.8-4.3-4.9-5.1
			l-6.4-1.6c-2.7-0.6-4.1-1.3-5.3-2.4c-1.7-1.6-2.6-3.7-2.6-6.3c0-5.3,4.4-8.8,10.9-8.8c5.8,0,9.7,2.7,11.5,7.9l-3.6,1
			c-0.4-1.7-1-2.6-2-3.5c-1.6-1.4-3.8-2.2-6-2.2c-3.9,0-6.8,2.2-6.8,5.3c0,2.6,1.5,4,5.3,4.9l6,1.5c5.5,1.3,8.3,4.3,8.3,8.9
			c0,5.9-4.7,9.7-12,9.7c-4.1,0-7-1-9.4-3.2c-1.7-1.6-2.6-3-3.7-6.1L418.2,378.3z"/>
		<path id="XMLID_27_" fill="#C61E1E" d="M469.5,387.7h-20.9v-32.3h20.4v3.5h-16.4v10.3h13v3.3h-13v11.6h16.9V387.7z"/>
	</g>
</g>
</svg>
