<?xml version="1.0" encoding="UTF-8"?><!DOCTYPE svg PUBLIC "-//W3C//DTD SVG 1.1//EN" "http://www.w3.org/Graphics/SVG/1.1/DTD/svg11.dtd"><svg xmlns="http://www.w3.org/2000/svg"><symbol id="10volt-bright-blue-cropped" viewBox="108.6 211.6 382.8 176.8"><linearGradient id="a" gradientUnits="userSpaceOnUse" x1="300" y1="211.6" x2="300" y2="388.4" gradientTransform="matrix(1 0 0 -1 0 600)"><stop offset="0" stop-color="#002EE4"/><stop offset=".227" stop-color="#322CEC"/><stop offset=".478" stop-color="#622BF4"/><stop offset=".7" stop-color="#852AFA"/><stop offset=".882" stop-color="#9A29FE"/><stop offset="1" stop-color="#A229FF"/></linearGradient><path fill="url(#a)" d="M141.4 326.8h-16.5v-86.7h-16.3v-10.4c9.2-3.9 19-11 23.1-16.3h9.7v113.4zm72.7-36.1c0 12.9-1.7 20.4-5.9 26.9-4.8 7-12.8 10.9-22.4 10.9-9.9 0-17.8-3.9-22.6-10.9-4.2-6.5-5.9-14.1-5.9-26.9v-41.3c0-12.8 1.7-20.4 5.9-26.9 4.8-7 12.8-10.9 22.6-10.9 9.7 0 17.7 3.9 22.4 10.9 4.2 6.5 5.9 13.9 5.9 26.9v41.3zm-40.4 3.6c0 7.8.3 10 2 13.3 1.9 3.4 5.4 5.3 10 5.3 4.4 0 8-1.9 9.9-5.3 1.7-3.2 2-5.3 2-13.3v-48.4c0-8-.3-10-2-13.3-1.9-3.4-5.4-5.3-9.9-5.3-4.6 0-8.2 1.9-10 5.3-1.7 3.2-2 5.3-2 13.3v48.4zm73.9 32.5l-24.3-113.4h18.2l17 86.2 15-86.2h17.8l-21.9 113.4h-21.8zm115.6-36.1c0 12.7-1.9 20.4-6.5 26.9-5.1 7.1-13.6 10.9-24.5 10.9s-19.4-3.7-24.5-10.9c-4.6-6.5-6.5-14.1-6.5-26.9v-41.3c0-12.8 1.9-20.4 6.5-26.9 5.1-7.1 13.6-10.9 24.5-10.9s19.4 3.7 24.5 10.9c4.6 6.5 6.5 14.1 6.5 26.9v41.3zm-44.3-.3c0 9 .5 12.1 2.2 15.5 2 3.7 6.3 6.1 11.2 6.1 4.9 0 9.2-2.4 11.2-6.1 1.9-3.6 2.2-6.3 2.2-15.5v-40.6c0-9.2-.3-11.9-2.2-15.5-2-3.7-6.3-6.1-11.2-6.1-4.9 0-9.2 2.4-11.2 6.1-1.7 3.4-2.2 6.5-2.2 15.5v40.6zm78 20.2h34.8v16.2h-52.4V213.4h17.5v97.2h.1zm72.4 16.2h-17.5v-97.2h-21.9v-16.1h61.5v16.1h-22.1v97.2zm-321.6 50.9c-.9 3.3-1.6 5-3.2 6.9-2.1 2.5-5 3.8-8.7 3.8s-6.7-1.4-8.9-3.9c-2.8-3.3-4.3-7.9-4.3-13.2 0-10 5.3-16.5 13.4-16.5 6.1 0 9.9 3.4 11.6 10.4l-3.8.7c-1.6-5.4-3.9-7.7-7.9-7.7-5.6 0-9 5-9 13.5 0 8 3.4 13.2 8.8 13.2 2.3 0 4.7-1.2 6-3 1-1.4 1.5-2.5 2.2-5.1l3.8.9zm32.5-6.2c0 4.8-1.6 9.5-4.3 12.7-2.3 2.8-5.2 4.1-9 4.1s-6.9-1.4-9.2-4.2c-2.6-3.2-4-7.5-4-12.5 0-10 5.4-16.9 13.3-16.9 8 0 13.2 6.7 13.2 16.8zm-22.2.1c0 8 3.6 13.4 9.1 13.4 5.4 0 9-5.4 9-13.6 0-8.4-3.4-13.4-9.1-13.4-5.5 0-9 5.4-9 13.6zm31.2 16.1v-32.3H209v3.5h-15.7v10.2h13.1v3.2h-13.1v15.3l-4.1.1zm27.5 0v-32.3h19.8v3.5h-15.7v10.2h13.1v3.2h-13.1v15.3l-4.1.1zm48.4 0h-20.9v-32.3h20.4v3.5h-16.4v10.3h13v3.3h-13v11.6h16.9v3.6zm29.5 0h-20.9v-32.3h20.4v3.5h-16.4v10.3h13v3.3h-13v11.6h16.9v3.6zm42.7 0v-15.4h-15v15.4h-4v-32.3h4v13.4h15v-13.4h4v32.3h-4zm39.5-16.2c0 4.8-1.6 9.5-4.3 12.7-2.3 2.8-5.2 4.1-9 4.1s-6.9-1.4-9.2-4.2c-2.6-3.2-4-7.5-4-12.5 0-10 5.4-16.9 13.3-16.9s13.2 6.7 13.2 16.8zm-22.3.1c0 8 3.6 13.4 9.1 13.4 5.4 0 9-5.4 9-13.6 0-8.4-3.4-13.4-9.1-13.4-5.5 0-9 5.4-9 13.6zm53-16.2v21.1c0 3.7-.6 6-2.2 8-1.9 2.5-5 3.8-9.1 3.8-4.3 0-7.3-1.3-9.1-3.8-1.4-2-1.9-4.3-1.9-8v-21.1h4v21.1c0 3 .4 4.7 1.3 5.9 1.1 1.5 3.5 2.4 6 2.4s4.7-.9 6-2.4c1.2-1.4 1.6-3.1 1.6-5.9v-21.1h3.4zm10.7 22.9c1.5 4.5 4.6 6.6 9.5 6.6 4.8 0 7.8-2.2 7.8-5.9 0-2.5-1.8-4.3-4.9-5.1l-6.4-1.6c-2.7-.6-4.1-1.3-5.3-2.4-1.7-1.6-2.6-3.7-2.6-6.3 0-5.3 4.4-8.8 10.9-8.8 5.8 0 9.7 2.7 11.5 7.9l-3.6 1c-.4-1.7-1-2.6-2-3.5-1.6-1.4-3.8-2.2-6-2.2-3.9 0-6.8 2.2-6.8 5.3 0 2.6 1.5 4 5.3 4.9l6 1.5c5.5 1.3 8.3 4.3 8.3 8.9 0 5.9-4.7 9.7-12 9.7-4.1 0-7-1-9.4-3.2-1.7-1.6-2.6-3-3.7-6.1l3.4-.7zm51.3 9.4h-20.9v-32.3H469v3.5h-16.4v10.3h13v3.3h-13v11.6h16.9v3.6z"/></symbol><symbol id="10volt-red-cropped" viewBox="108.6 211.6 382.8 176.8"><g fill="#C61E1E"><path d="M141.4 326.8h-16.5v-86.7h-16.3v-10.4c9.2-3.9 19-11 23.1-16.3h9.7v113.4zM214.1 290.7c0 12.9-1.7 20.4-5.9 26.9-4.8 7-12.8 10.9-22.4 10.9-9.9 0-17.8-3.9-22.6-10.9-4.2-6.5-5.9-14.1-5.9-26.9v-41.3c0-12.8 1.7-20.4 5.9-26.9 4.8-7 12.8-10.9 22.6-10.9 9.7 0 17.7 3.9 22.4 10.9 4.2 6.5 5.9 13.9 5.9 26.9v41.3zm-40.4 3.6c0 7.8.3 10 2 13.3 1.9 3.4 5.4 5.3 10 5.3 4.4 0 8-1.9 9.9-5.3 1.7-3.2 2-5.3 2-13.3v-48.4c0-8-.3-10-2-13.3-1.9-3.4-5.4-5.3-9.9-5.3-4.6 0-8.2 1.9-10 5.3-1.7 3.2-2 5.3-2 13.3v48.4zM247.6 326.8l-24.3-113.4h18.2l17 86.2 15-86.2h17.8l-21.9 113.4h-21.8zM363.2 290.7c0 12.7-1.9 20.4-6.5 26.9-5.1 7.1-13.6 10.9-24.5 10.9s-19.4-3.7-24.5-10.9c-4.6-6.5-6.5-14.1-6.5-26.9v-41.3c0-12.8 1.9-20.4 6.5-26.9 5.1-7.1 13.6-10.9 24.5-10.9s19.4 3.7 24.5 10.9c4.6 6.5 6.5 14.1 6.5 26.9v41.3zm-44.3-.3c0 9 .5 12.1 2.2 15.5 2 3.7 6.3 6.1 11.2 6.1 4.9 0 9.2-2.4 11.2-6.1 1.9-3.6 2.2-6.3 2.2-15.5v-40.6c0-9.2-.3-11.9-2.2-15.5-2-3.7-6.3-6.1-11.2-6.1-4.9 0-9.2 2.4-11.2 6.1-1.7 3.4-2.2 6.5-2.2 15.5v40.6zM396.9 310.6h34.8v16.2h-52.4V213.4h17.5v97.2h.1zM469.3 326.8h-17.5v-97.2h-21.9v-16.1h61.5v16.1h-22.1v97.2z"/><g><path d="M147.7 377.7c-.9 3.3-1.6 5-3.2 6.9-2.1 2.5-5 3.8-8.7 3.8s-6.7-1.4-8.9-3.9c-2.8-3.3-4.3-7.9-4.3-13.2 0-10 5.3-16.5 13.4-16.5 6.1 0 9.9 3.4 11.6 10.4l-3.8.7c-1.6-5.4-3.9-7.7-7.9-7.7-5.6 0-9 5-9 13.5 0 8 3.4 13.2 8.8 13.2 2.3 0 4.7-1.2 6-3 1-1.4 1.5-2.5 2.2-5.1l3.8.9zM180.2 371.5c0 4.8-1.6 9.5-4.3 12.7-2.3 2.8-5.2 4.1-9 4.1s-6.9-1.4-9.2-4.2c-2.6-3.2-4-7.5-4-12.5 0-10 5.4-16.9 13.3-16.9 8 0 13.2 6.7 13.2 16.8zm-22.2.1c0 8 3.6 13.4 9.1 13.4 5.4 0 9-5.4 9-13.6 0-8.4-3.4-13.4-9.1-13.4-5.5 0-9 5.4-9 13.6zM189.2 387.7v-32.3H209v3.5h-15.7v10.2h13.1v3.2h-13.1v15.3l-4.1.1zM216.7 387.7v-32.3h19.8v3.5h-15.7v10.2h13.1v3.2h-13.1v15.3l-4.1.1zM265.1 387.7h-20.9v-32.3h20.4v3.5h-16.4v10.3h13v3.3h-13v11.6h16.9v3.6zM294.6 387.7h-20.9v-32.3h20.4v3.5h-16.4v10.3h13v3.3h-13v11.6h16.9v3.6zM337.3 387.7v-15.4h-15v15.4h-4v-32.3h4v13.4h15v-13.4h4v32.3h-4zM376.8 371.5c0 4.8-1.6 9.5-4.3 12.7-2.3 2.8-5.2 4.1-9 4.1s-6.9-1.4-9.2-4.2c-2.6-3.2-4-7.5-4-12.5 0-10 5.4-16.9 13.3-16.9s13.2 6.7 13.2 16.8zm-22.3.1c0 8 3.6 13.4 9.1 13.4 5.4 0 9-5.4 9-13.6 0-8.4-3.4-13.4-9.1-13.4-5.5 0-9 5.4-9 13.6zM407.5 355.4v21.1c0 3.7-.6 6-2.2 8-1.9 2.5-5 3.8-9.1 3.8-4.3 0-7.3-1.3-9.1-3.8-1.4-2-1.9-4.3-1.9-8v-21.1h4v21.1c0 3 .4 4.7 1.3 5.9 1.1 1.5 3.5 2.4 6 2.4s4.7-.9 6-2.4c1.2-1.4 1.6-3.1 1.6-5.9v-21.1h3.4zM418.2 378.3c1.5 4.5 4.6 6.6 9.5 6.6 4.8 0 7.8-2.2 7.8-5.9 0-2.5-1.8-4.3-4.9-5.1l-6.4-1.6c-2.7-.6-4.1-1.3-5.3-2.4-1.7-1.6-2.6-3.7-2.6-6.3 0-5.3 4.4-8.8 10.9-8.8 5.8 0 9.7 2.7 11.5 7.9l-3.6 1c-.4-1.7-1-2.6-2-3.5-1.6-1.4-3.8-2.2-6-2.2-3.9 0-6.8 2.2-6.8 5.3 0 2.6 1.5 4 5.3 4.9l6 1.5c5.5 1.3 8.3 4.3 8.3 8.9 0 5.9-4.7 9.7-12 9.7-4.1 0-7-1-9.4-3.2-1.7-1.6-2.6-3-3.7-6.1l3.4-.7zM469.5 387.7h-20.9v-32.3H469v3.5h-16.4v10.3h13v3.3h-13v11.6h16.9v3.6z"/></g></g></symbol><symbol id="10volt-red-hot" viewBox="0 0 438 204"><g fill="#D85050"><path d="M88 133.8H71.5V47.1H55.2V36.7c9.2-3.9 19-11 23.1-16.3H88v113.4zM160.8 97.7c0 12.9-1.7 20.4-5.9 26.9-4.8 7-12.8 10.9-22.4 10.9-9.9 0-17.8-3.9-22.6-10.9-4.2-6.5-5.9-14.1-5.9-26.9V56.4c0-12.8 1.7-20.4 5.9-26.9 4.8-7 12.8-10.9 22.6-10.9 9.7 0 17.7 3.9 22.4 10.9 4.2 6.5 5.9 13.9 5.9 26.9v41.3zm-40.5 3.6c0 7.8.3 10 2 13.3 1.9 3.4 5.4 5.3 10 5.3 4.4 0 8-1.9 9.9-5.3 1.7-3.2 2-5.3 2-13.3V52.9c0-8-.3-10-2-13.3-1.9-3.4-5.4-5.3-9.9-5.3-4.6 0-8.2 1.9-10 5.3-1.7 3.2-2 5.3-2 13.3v48.4zM194.3 133.8L170 20.4h18.2l17 86.2 15-86.2H238l-22 113.4h-21.7zM309.9 97.7c0 12.7-1.9 20.4-6.5 26.9-5.1 7.1-13.6 10.9-24.5 10.9s-19.4-3.7-24.5-10.9c-4.6-6.5-6.5-14.1-6.5-26.9V56.4c0-12.8 1.9-20.4 6.5-26.9 5.1-7.1 13.6-10.9 24.5-10.9s19.4 3.7 24.5 10.9c4.6 6.5 6.5 14.1 6.5 26.9v41.3zm-44.4-.3c0 9 .5 12.1 2.2 15.5 2 3.7 6.3 6.1 11.2 6.1 4.9 0 9.2-2.4 11.2-6.1 1.9-3.6 2.2-6.3 2.2-15.5V56.8c0-9.2-.3-11.9-2.2-15.5-2-3.7-6.3-6.1-11.2-6.1-4.9 0-9.2 2.4-11.2 6.1-1.7 3.4-2.2 6.5-2.2 15.5v40.6zM343.5 117.6h34.8v16.2H326V20.4h17.5v97.2zM415.9 133.8h-17.5V36.5h-21.9V20.4H438v16.1h-22.1v97.3z"/></g><path fill="#D85050" d="M11.6 0l10 102-14.3-9 24.3-11.6 15.2-7.2-.9 16L39.3 204 25.9 90.7l14.3 8.8L15.9 111 0 118.6 1.6 102"/></symbol><symbol id="10volt-red" viewBox="0 0 600 600"><g fill="#C61E1E"><path d="M141.4 326.8h-16.5v-86.7h-16.3v-10.4c9.2-3.9 19-11 23.1-16.3h9.7v113.4zM214.1 290.7c0 12.9-1.7 20.4-5.9 26.9-4.8 7-12.8 10.9-22.4 10.9-9.9 0-17.8-3.9-22.6-10.9-4.2-6.5-5.9-14.1-5.9-26.9v-41.3c0-12.8 1.7-20.4 5.9-26.9 4.8-7 12.8-10.9 22.6-10.9 9.7 0 17.7 3.9 22.4 10.9 4.2 6.5 5.9 13.9 5.9 26.9v41.3zm-40.4 3.6c0 7.8.3 10 2 13.3 1.9 3.4 5.4 5.3 10 5.3 4.4 0 8-1.9 9.9-5.3 1.7-3.2 2-5.3 2-13.3v-48.4c0-8-.3-10-2-13.3-1.9-3.4-5.4-5.3-9.9-5.3-4.6 0-8.2 1.9-10 5.3-1.7 3.2-2 5.3-2 13.3v48.4zM247.6 326.8l-24.3-113.4h18.2l17 86.2 15-86.2h17.8l-21.9 113.4h-21.8zM363.2 290.7c0 12.7-1.9 20.4-6.5 26.9-5.1 7.1-13.6 10.9-24.5 10.9s-19.4-3.7-24.5-10.9c-4.6-6.5-6.5-14.1-6.5-26.9v-41.3c0-12.8 1.9-20.4 6.5-26.9 5.1-7.1 13.6-10.9 24.5-10.9s19.4 3.7 24.5 10.9c4.6 6.5 6.5 14.1 6.5 26.9v41.3zm-44.3-.3c0 9 .5 12.1 2.2 15.5 2 3.7 6.3 6.1 11.2 6.1 4.9 0 9.2-2.4 11.2-6.1 1.9-3.6 2.2-6.3 2.2-15.5v-40.6c0-9.2-.3-11.9-2.2-15.5-2-3.7-6.3-6.1-11.2-6.1-4.9 0-9.2 2.4-11.2 6.1-1.7 3.4-2.2 6.5-2.2 15.5v40.6zM396.9 310.6h34.8v16.2h-52.4V213.4h17.5v97.2zM469.3 326.8h-17.5v-97.2h-21.9v-16.1h61.5v16.1h-22.1v97.2z"/><g><path d="M147.7 377.7c-.9 3.3-1.6 5-3.2 6.9-2.1 2.5-5 3.8-8.7 3.8-3.7 0-6.7-1.4-8.9-3.9-2.8-3.3-4.3-7.9-4.3-13.2 0-10 5.3-16.5 13.4-16.5 6.1 0 9.9 3.4 11.6 10.4l-3.8.7c-1.6-5.4-3.9-7.7-7.9-7.7-5.6 0-9 5-9 13.5 0 8 3.4 13.2 8.8 13.2 2.3 0 4.7-1.2 6-3 1-1.4 1.5-2.5 2.2-5.1l3.8.9zM180.2 371.5c0 4.8-1.6 9.5-4.3 12.7-2.3 2.8-5.2 4.1-9 4.1s-6.9-1.4-9.2-4.2c-2.6-3.2-4-7.5-4-12.5 0-10 5.4-16.9 13.3-16.9 8 0 13.2 6.7 13.2 16.8zm-22.2.1c0 8 3.6 13.4 9.1 13.4 5.4 0 9-5.4 9-13.6 0-8.4-3.4-13.4-9.1-13.4-5.5 0-9 5.4-9 13.6zM189.2 387.7v-32.3H209v3.5h-15.7v10.2h13.1v3.2h-13.1v15.3h-4.1zM216.7 387.7v-32.3h19.8v3.5h-15.7v10.2h13.1v3.2h-13.1v15.3h-4.1zM265.1 387.7h-20.9v-32.3h20.4v3.5h-16.4v10.3h13v3.3h-13v11.6h16.9v3.6zM294.6 387.7h-20.9v-32.3h20.4v3.5h-16.4v10.3h13v3.3h-13v11.6h16.9v3.6zM337.3 387.7v-15.4h-15v15.4h-4v-32.3h4v13.4h15v-13.4h4v32.3h-4zM376.8 371.5c0 4.8-1.6 9.5-4.3 12.7-2.3 2.8-5.2 4.1-9 4.1s-6.9-1.4-9.2-4.2c-2.6-3.2-4-7.5-4-12.5 0-10 5.4-16.9 13.3-16.9s13.2 6.7 13.2 16.8zm-22.3.1c0 8 3.6 13.4 9.1 13.4 5.4 0 9-5.4 9-13.6 0-8.4-3.4-13.4-9.1-13.4-5.5 0-9 5.4-9 13.6zM407.5 355.4v21.1c0 3.7-.6 6-2.2 8-1.9 2.5-5 3.8-9.1 3.8-4.3 0-7.3-1.3-9.1-3.8-1.4-2-1.9-4.3-1.9-8v-21.1h4v21.1c0 3 .4 4.7 1.3 5.9 1.1 1.5 3.5 2.4 6 2.4s4.7-.9 6-2.4c1.2-1.4 1.6-3.1 1.6-5.9v-21.1h3.4zM418.2 378.3c1.5 4.5 4.6 6.6 9.5 6.6 4.8 0 7.8-2.2 7.8-5.9 0-2.5-1.8-4.3-4.9-5.1l-6.4-1.6c-2.7-.6-4.1-1.3-5.3-2.4-1.7-1.6-2.6-3.7-2.6-6.3 0-5.3 4.4-8.8 10.9-8.8 5.8 0 9.7 2.7 11.5 7.9l-3.6 1c-.4-1.7-1-2.6-2-3.5-1.6-1.4-3.8-2.2-6-2.2-3.9 0-6.8 2.2-6.8 5.3 0 2.6 1.5 4 5.3 4.9l6 1.5c5.5 1.3 8.3 4.3 8.3 8.9 0 5.9-4.7 9.7-12 9.7-4.1 0-7-1-9.4-3.2-1.7-1.6-2.6-3-3.7-6.1l3.4-.7zM469.5 387.7h-20.9v-32.3H469v3.5h-16.4v10.3h13v3.3h-13v11.6h16.9v3.6z"/></g></g></symbol><symbol id="email" viewBox="0 0 560 560"><path d="M280.002 250.79L560 85H.004"/><path d="M280 289.14L0 123.184V453.5c0 12.15 9.85 22 22 22h516c12.15 0 22-9.85 22-22V123.186L280 289.14z"/></symbol><symbol id="github" viewBox="-245 338.2 120.8 117.8"><path d="M-184.6 338.2c-33.4 0-60.4 27-60.4 60.4 0 26.7 17.3 49.3 41.3 57.3 3 .6 4.1-1.3 4.1-2.9 0-1.4-.1-6.2-.1-11.2-16.8 3.6-20.3-7.2-20.3-7.2-2.7-7-6.7-8.8-6.7-8.8-5.5-3.7.4-3.7.4-3.7 6.1.4 9.3 6.2 9.3 6.2 5.4 9.2 14.1 6.6 17.6 5 .5-3.9 2.1-6.6 3.8-8.1-13.4-1.4-27.5-6.6-27.5-29.8 0-6.6 2.4-12 6.2-16.2-.6-1.5-2.7-7.7.6-16 0 0 5.1-1.6 16.6 6.2 4.8-1.3 10-2 15.1-2s10.3.7 15.1 2c11.5-7.8 16.6-6.2 16.6-6.2 3.3 8.3 1.2 14.5.6 16 3.9 4.2 6.2 9.6 6.2 16.2 0 23.2-14.1 28.3-27.6 29.8 2.2 1.9 4.1 5.5 4.1 11.2 0 8.1-.1 14.6-.1 16.6 0 1.6 1.1 3.5 4.1 2.9 24-8 41.3-30.6 41.3-57.3.1-33.4-27-60.4-60.3-60.4z"/><path d="M-222.1 424.9c-.1.3-.6.4-1 .2s-.7-.6-.5-.9c.1-.3.6-.4 1-.2s.6.6.5.9zM-219.7 427.6c-.3.3-.9.1-1.2-.3-.4-.4-.5-1-.2-1.3.3-.3.8-.1 1.2.3.4.5.5 1.1.2 1.3zM-217.3 431.1c-.4.3-1 0-1.3-.5-.4-.5-.4-1.2 0-1.4.4-.3 1 0 1.3.5.4.5.4 1.1 0 1.4zM-214 434.5c-.3.4-1 .3-1.6-.2-.5-.5-.7-1.2-.3-1.5.3-.4 1-.3 1.6.2.5.4.6 1.1.3 1.5zM-209.5 436.4c-.1.5-.8.7-1.5.5-.7-.2-1.1-.8-1-1.2.1-.5.8-.7 1.5-.5s1.1.7 1 1.2zM-204.6 436.8c0 .5-.6.9-1.3.9-.7 0-1.3-.4-1.3-.9s.6-.9 1.3-.9c.7 0 1.3.4 1.3.9zM-200 436c.1.5-.4 1-1.1 1.1-.7.1-1.3-.2-1.4-.7s.4-1 1.1-1.1c.7-.1 1.3.2 1.4.7z"/></symbol><symbol id="linkedin" viewBox="0 0 800 800"><path d="M400 16C187.9 16 16 187.9 16 400s171.9 384 384 384 384-171.9 384-384S612.1 16 400 16zm196 514.2c0 36.2-29.6 65.8-65.8 65.8H269.8c-36.2 0-65.8-29.6-65.8-65.8V269.8c0-36.2 29.6-65.8 65.8-65.8h260.3c36.2 0 65.8 29.6 65.8 65.8v260.4z"/><path d="M302 351h49v171.5h-49z"/><circle cx="326.5" cy="302" r="24.5"/><path d="M467.4 351c-17.3 0-32.8 16.5-42.9 30.4V351h-49v171.5h49v-98c0-13.5 11-24.5 24.5-24.5s24.5 11 24.5 24.5v98h49V412.2c0-33.8-24.7-61.2-55.1-61.2zM302 351h49v171.5h-49z"/><circle cx="326.5" cy="302" r="24.5"/><path d="M467.4 351c-17.3 0-32.8 16.5-42.9 30.4V351h-49v171.5h49v-98c0-13.5 11-24.5 24.5-24.5s24.5 11 24.5 24.5v98h49V412.2c0-33.8-24.7-61.2-55.1-61.2z"/></symbol><symbol id="twitter" viewBox="0 0 800 800"><path d="M400 16C187.9 16 16 187.9 16 400s171.9 384 384 384 384-171.9 384-384S612.1 16 400 16zm155.9 303.6c.2 3.5.2 7 .2 10.5 0 106.9-80.9 230.2-228.8 230.2-45.4 0-87.7-13.4-123.3-36.3 6.3.7 12.7 1.1 19.2 1.1 37.7 0 72.4-12.9 99.9-34.6-35.2-.7-64.9-24-75.1-56.2 4.9.9 9.9 1.5 15.1 1.5 7.3 0 14.4-1 21.2-2.8-36.8-7.4-64.5-40.1-64.5-79.3v-1c10.8 6.1 23.2 9.7 36.4 10.1-21.6-14.5-35.8-39.3-35.8-67.3 0-14.8 4-28.7 10.9-40.7 39.7 48.9 98.9 81.1 165.8 84.5-1.4-5.9-2.1-12.1-2.1-18.4 0-44.7 36-80.9 80.4-80.9 23.1 0 44 9.8 58.7 25.5 18.3-3.6 35.5-10.4 51.1-19.6-6 18.9-18.8 34.7-35.4 44.8 16.3-2 31.8-6.3 46.2-12.7-10.8 15.9-24.4 30.2-40.1 41.6z"/></symbol></svg>